<svg xmlns="http://www.w3.org/2000/svg" viewBox="0 0 3827 5103">
  <path fill="#fff" d="M479 41c20 0 51 3 95 11 59 11 124 30 194 57 91 34 190 80 294 137 124 69 258 154 397 253 2 2 207 141 453 348l238 231 36 34a33584 33584 0 0 0 428 407c39 35 59 52 73 60a701 701 0 0 0 99 80c37 25 74 46 112 60 47 19 94 28 139 28a313 313 0 0 0 52-4h4c38 0 170-9 265-122 79-94 111-234 94-416 57 64 150 190 178 351a1797 1797 0 0 1-71 416c-5 10-21 52-32 113a741 741 0 0 0-13 125 714 714 0 0 0 13 155l1 1a1381 1381 0 0 0 107 287c63 125 126 357 131 375 1 7 10 54 16 114 7 84 4 156-9 206a571 571 0 0 1-38 102 605 605 0 0 1-69 111 742 742 0 0 1-222 186 1534 1534 0 0 0 121-322c17-76 23-146 19-211s-15-122-34-173c-15-42-36-79-60-110-36-45-72-66-85-72a152 152 0 0 0-29-15c-25-10-54-15-86-15-51 0-107 14-167 41-73 33-152 87-234 159-9 7-55 43-131 120-48 50-99 106-151 167-65 77-132 163-199 255-1 1-80 111-209 264-76 90-155 176-233 258a4262 4262 0 0 1-614 529c-115 79-231 149-345 208a2191 2191 0 0 1-550 199c-48 10-98 17-148 23a1752 1752 0 0 1-188 10l-77-2 11-76a1658 1658 0 0 1 266-653 1458 1458 0 0 1 353-355 39 39 0 0 0 4-4c1-1 48-44 140-99a1659 1659 0 0 1 176-92 1973 1973 0 0 1 245-92c10-2 59-12 133-33a2919 2919 0 0 0 323-113c146-61 280-132 396-211 147-98 267-209 357-329s156-244 195-369c31-101 45-202 42-301-5-153-51-254-62-275-14-48-141-380-893-674h-1c-3-1-233-85-481-212-324-166-532-328-599-468l-2-3c-1-2-118-209-144-350-19-110-23-248-24-310m-5-41l-23 1-13 8s-2 199 25 349 149 364 149 364c175 363 1103 700 1103 700 784 306 870 651 870 651s214 396-169 906-1187 671-1187 671c-387 116-579 292-579 292C28 4383 0 5099 0 5099c42 3 83 4 122 4 280 0 481-68 481-68 595-164 1099-636 1099-636 422-361 740-804 740-804 291-400 473-534 473-534 175-156 299-191 376-191 63 0 94 24 94 24s142 59 158 323-164 562-164 562c-10 30-1 37 10 37 10 0 21-6 21-6 267-129 367-317 403-451s-7-341-7-341-66-249-135-384-103-277-103-277c-42-208 30-371 30-371 75-252 73-433 73-433-43-256-239-425-239-425-13-14-22-18-27-18s-7 4-7 4c98 566-251 588-305 588h-7a270 270 0 0 1-49 4c-174 0-326-162-326-162-24 0-482-448-533-496s-238-231-238-231c-252-212-458-352-458-352C877 33 557 0 474 0z"/>
  <path fill="#fff" d="M3057 1134a210 210 0 1 1-148 62 208 208 0 0 1 148-62m0-41a251 251 0 1 0 0 502 251 251 0 0 0 0-502z"/>
</svg>
